<?xml version="1.0"?>
<svg xmlns="http://www.w3.org/2000/svg" height="512px" viewBox="0 -61 512 512" width="512px"><g><path d="m467 60c-24.8125 0-45 20.1875-45 45 0 11.765625 4.542969 22.484375 11.960938 30.511719-5.875 8.527343-12.882813 15.914062-20.480469 22.113281-30.351563-35.085938-77.050781-60.167969-132.214844-66.238281-.746094-2.597657-1.457031-5.199219-2.125-7.808594 13.085937-7.878906 21.859375-22.222656 21.859375-38.578125 0-24.8125-20.1875-45-45-45s-45 20.1875-45 45c0 16.355469 8.773438 30.699219 21.859375 38.578125-.667969 2.609375-1.375 5.210937-2.125 7.808594-55.164063 6.070312-101.867187 31.152343-132.214844 66.238281-7.597656-6.199219-14.605469-13.585938-20.480469-22.117188 7.417969-8.023437 11.960938-18.742187 11.960938-30.507812 0-24.8125-20.1875-45-45-45s-45 20.1875-45 45c0 22.152344 16.09375 40.605469 37.203125 44.308594l53.796875 168.035156v72.65625h330v-72.65625l53.796875-168.035156c21.109375-3.703125 37.203125-22.15625 37.203125-44.308594 0-24.8125-20.1875-45-45-45zm-298.980469 149.863281c40.199219-5.457031 68.332031-45.046875 84.894531-89.820312 1.03125-.015625 2.054688-.042969 3.085938-.042969s2.054688.027344 3.085938.042969c16.5625 44.773437 44.691406 84.363281 84.894531 89.820312 25.96875 3.523438 60.535156-5.746093 89.503906-29.910156l-38.433594 120.046875h-278.101562l-38.433594-120.046875c29.160156 24.320313 63.761719 33.402344 89.503906 29.910156zm219.359375-36.410156c-13.882812 5.910156-27.835937 8.246094-39.363281 6.683594-22.664063-3.078125-41.683594-26.636719-55.125-56.664063 37.363281 7.097656 71 24.769532 94.488281 49.980469zm-131.378906-143.453125c8.269531 0 15 6.730469 15 15s-6.730469 15-15 15-15-6.730469-15-15 6.730469-15 15-15zm-36.894531 93.472656c-13.4375 30.027344-32.457031 53.585938-55.125 56.664063-11.527344 1.566406-25.480469-.769531-39.363281-6.679688 23.488281-25.214843 57.128906-42.886719 94.488281-49.984375zm-174.105469-33.472656c8.269531 0 15 6.730469 15 15s-6.730469 15-15 15-15-6.730469-15-15 6.730469-15 15-15zm346 270h-270v-30h270zm76-240c-8.269531 0-15-6.730469-15-15s6.730469-15 15-15 15 6.730469 15 15-6.730469 15-15 15zm0 0" data-original="#000000" class="active-path" data-old_color="#000000" fill="#524763"/><path d="m307.214844 225-51.214844-51.214844-51.214844 51.214844 51.214844 51.214844zm-51.214844-8.785156 8.785156 8.785156-8.785156 8.785156-8.785156-8.785156zm0 0" data-original="#000000" class="active-path" data-old_color="#000000" fill="#524763"/><path d="m346 233.78125 21.210938 21.214844-21.210938 21.210937-21.214844-21.210937zm0 0" data-original="#000000" class="active-path" data-old_color="#000000" fill="#524763"/><path d="m166 233.785156 21.214844 21.210938-21.214844 21.214844-21.210938-21.214844zm0 0" data-original="#000000" class="active-path" data-old_color="#000000" fill="#524763"/></g> </svg>
